<?xml version="1.0" encoding="utf-8"?>
<!-- Generator: Adobe Illustrator 25.4.1, SVG Export Plug-In . SVG Version: 6.00 Build 0)  -->
<svg version="1.1" xmlns="http://www.w3.org/2000/svg" xmlns:xlink="http://www.w3.org/1999/xlink" x="0px" y="0px"
	 viewBox="0 0 2636.61 535.65" style="enable-background:new 0 0 2636.61 535.65;" xml:space="preserve">
<style type="text/css">
	.st0{fill:#FFFFFF;}
	.st1{fill:#E83382;}
	.st2{fill:url(#SVGID_1_);}
</style>
<g id="Layer_11">
	<g>
		<polygon class="st0" points="2436.81,215.99 2436.81,215.99 2436.81,215.99 		"/>
	</g>
	<g>
		<path class="st0" d="M256.09,504.14L0,535.65l186.38-276.5l210.24,36.59L256.09,504.14z M291.34,103.37l-35.8,53.07h714.37
			c78.11,0,151.03-38.81,194.78-103.59l35.8-53.07H486.11C408-0.22,335.09,38.58,291.34,103.37 M686.64,190.93L552.62,389.82
			l149.15-18.35l121.75-180.54H686.64z M864.95,190.93L746.96,365.94l96.01-11.83c33.7-4.2,64.08-22.77,83.08-50.97l75.68-112.33
			H864.95V190.93z M45.85,190.93l-5.3,7.85l414.3,72.08L358.62,413.7l148.71-18.24L645.1,191.04H45.85V190.93z"/>
		<path class="st0" d="M2333.68,0h-157.99l-22.76,33.83h103.63l-103.63,122.94h177.65v-33.83h-100.54L2333.68,0z M1359.79,33.83
			h117.33L1499.88,0h-180.41v156.66h40.22v-48.98h111.14V73.63h-111.14v-39.8H1359.79z M2493.88,93.42l32.04-63.57l31.82,63.57
			H2493.88z M2589.44,156.77h44.52L2552.98,0h-54.36l-80.76,156.66h44.3l16.79-33.39h93.69L2589.44,156.77z M1669.03,125.15
			c-20.77,0-35.57-3.76-44.63-11.28s-13.48-19.46-13.48-35.71s4.53-28.08,13.48-35.49c9.06-7.41,23.86-11.06,44.63-11.06
			c20.77,0,35.57,3.76,44.63,11.17c9.06,7.52,13.48,19.24,13.48,35.38c0,16.25-4.53,28.19-13.7,35.71
			C1704.49,121.39,1689.69,125.15,1669.03,125.15 M1669.03,158.98c33.7,0,58.55-6.85,74.46-20.45
			c15.91-13.71,23.97-33.72,23.97-60.36c0-26.42-7.95-46.43-23.97-60.03c-15.91-13.6-40.77-20.34-74.46-20.34
			c-33.81,0-58.67,6.74-74.57,20.23c-15.91,13.49-23.86,33.5-23.86,60.14c0,26.75,7.95,46.88,23.86,60.47
			C1610.36,152.13,1635.22,158.98,1669.03,158.98 M2061.57,156.77h-55.02l-92.8-75.62h66.29c13.7,0,29.83-1.88,29.83-22.44v-2.32
			c0-20.56-16.24-22.44-29.83-22.44h-72.59v122.94h-40.21V0h36.57h87.28c32.59,0,59.11,21.89,59.11,54.61
			c0,29.85-22.1,50.75-50.71,54.17L2061.57,156.77z"/>
		<path class="st1" d="M2439.81,419.67c0.9,0.55,1.8,1.1,2.69,1.63c19.09,11.31,37,16.97,53.74,16.97c11.81,0,21.85-2.98,30.11-8.96
			c8.39-5.96,13.34-13.73,14.84-23.3c1.6-10.19-1.21-18.12-8.4-23.78c-7.2-5.65-18.13-8.48-32.79-8.48
			c-16.04,0-33.41,3.35-52.11,10.07l28.14-167.82h160.58l-12.91,67.68h-97.09l-5.17,32.26c5.4-0.37,24.25-0.56,27.61-0.56
			c23.62,0,42.23,8.57,55.83,25.73c13.51,16.91,18.29,38.04,14.32,63.4c-4.67,29.83-19,54.7-43,74.59
			c-23.75,19.89-51.35,29.83-82.8,29.83c-23.57,0-45.85-5.75-66.86-17.24C2425.82,491.31,2439.09,419.22,2439.81,419.67z"/>
		<g>
			<g>
				<linearGradient id="SVGID_1_" gradientUnits="userSpaceOnUse" x1="1271.6722" y1="351.5177" x2="2436.7676" y2="351.5177">
					<stop  offset="0" style="stop-color:#EF6332"/>
					<stop  offset="0.2067" style="stop-color:#EF6037"/>
					<stop  offset="0.4424" style="stop-color:#ED5844"/>
					<stop  offset="0.6922" style="stop-color:#EB4A5B"/>
					<stop  offset="0.9503" style="stop-color:#E9377B"/>
					<stop  offset="1" style="stop-color:#E83382"/>
				</linearGradient>
				<path class="st2" d="M2436.77,215.99L2436.77,215.99l-1122.92,0l-42.17,271.05h1118.7L2436.77,215.99L2436.77,215.99
					L2436.77,215.99z"/>
			</g>
			<g>
				<polygon class="st0" points="1453,464.47 1488.42,240.84 1427.93,240.84 1415.23,320.92 1386.47,320.92 1399.15,240.84 
					1338.65,240.83 1303.24,464.45 1363.73,464.46 1378.11,373.71 1406.87,373.71 1392.5,464.46 				"/>
				<path class="st0" d="M1544.62,468.33c61.39,0.01,95.08-61.08,103.73-115.66c8.64-54.58-5.7-115.66-67.09-115.67
					c-61.39-0.01-95.09,61.09-103.72,115.65C1468.89,407.24,1483.23,468.33,1544.62,468.33z M1539.21,352.65
					c2.21-13.92,10.29-59.31,33.12-59.31c22.83,0,16.53,45.38,14.33,59.32c-2.22,13.94-10.28,59.32-33.13,59.32
					C1530.71,411.99,1537,366.61,1539.21,352.65z"/>
				<polygon class="st0" points="1899.14,240.88 1838.64,240.87 1803.23,464.49 1863.73,464.5 				"/>
				<path class="st0" d="M1809.96,315.31c9.35-59.02-26.17-74.44-78.66-74.44l-58.43-0.01l-35.42,223.63l60.5,0l9.45-59.62
					c1.73-10.96,2.88-21.93,4.32-32.92l0.68-0.59l18.75,93.13h65.55l-30.32-93.12C1791.9,361.88,1806.06,339.92,1809.96,315.31z
					 M1749.95,315.91c-2.3,14.52-13.11,28.46-29.12,28.46l-3.81-0.3l8.75-55.16C1742.51,288.02,1753.06,296.33,1749.95,315.91z"/>
				<path class="st0" d="M2065.22,240.89l-147.99-0.01l-8.37,52.79h26.69c13.05,0,26.59-1.19,38.55-1.78
					c-7.82,10.08-16.35,20.76-22.04,30.54l-83.6,142.07l153.92,0.02l8.35-52.79h-34.38c-11.57,0-23.13,1.78-34.24,2.66
					c4.05-6.82,8.63-13.34,12.73-20.46L2065.22,240.89z"/>
				<polygon class="st0" points="2436.65,215.96 2436.65,215.96 2436.65,215.96 				"/>
				<path class="st0" d="M2265.55,399c3.35-21.07,3.96-41.83,5.81-62.9l0.7-0.59l24.65,129.03h58.12l35.43-223.63l-58.13-0.01
					l-9.02,56.95c-4.1,25.79-3.68,51.31-5.39,77.12l-0.7,0.59L2290,240.91l-57.53,0l-35.42,223.63h58.13L2265.55,399z"/>
				<path class="st0" d="M2104.22,468.37c61.39,0.01,95.08-61.09,103.73-115.66c8.64-54.58-5.71-115.67-67.09-115.67
					c-61.39-0.01-95.1,61.08-103.74,115.65C2028.48,407.28,2042.83,468.37,2104.22,468.37z M2098.81,352.7
					c2.22-13.94,10.29-59.31,33.12-59.31c22.83,0,16.53,45.38,14.33,59.32c-2.21,13.95-10.28,59.32-33.12,59.32
					C2090.32,412.03,2096.6,366.66,2098.81,352.7z"/>
			</g>
		</g>
	</g>
</g>
<g id="Layer_9">
</g>
<g id="Layer_3">
</g>
</svg>
